# xmcd
#
# Track frame offsets:
#	150
#	18713
#	35135
#	51649
#	71885
#	92374
#	110741
#	128215
#	142045
#	155368
#	173500
#	188274
#	207300
#	224284
#	243494
#	258940
#	273732
#	288628
#	306380
#	320326
#
# Disc length: 4480 seconds
#
# Revision: 4
# Processed by: cddbd v1.5.2PL0 Copyright (c) Steve Scherf et al.
# Submitted via: EasyCDDAExtractor 12.0.1.1
#
DISCID=3a117e14
DTITLE=Various Artist - Bravo Hits, Vol. 29 [CD2]
DYEAR=2000
DGENRE=Blues
TTITLE0=A-Ha - Summer Moved On
TTITLE1=Sasha - Let Me Be The One
TTITLE2=Gabrielle - Rise
TTITLE3=All Saints - Pure Shores
TTITLE4=Destiny's Child - Say My Name
TTITLE5=Ricky Martin Ft. Meja - Private Emotion
TTITLE6=Marc Anthony - You Sang To Me
TTITLE7=Tom Jones and Stereophonics - Mama Told Me Not To Come
TTITLE8=Bomfunk Mc's - Freestyler
TTITLE9=Artful Dodgers and Romina Johnson - Movin' Too Fast
TTITLE10=Miles - Perfect World
TTITLE11=Band Ohne Namen - Take My Heart
TTITLE12=Oceana and Kim - 48 Stunden
TTITLE13=Sabrina Setlur Ft. Xavier Naidoo - Alles
TTITLE14=Nomansland - Greensleeves
TTITLE15=Mabel - Disco - Disco
TTITLE16=Score! - Sag Mir Warum
TTITLE17=Fettes Brot - Da Drauszen
TTITLE18=Stefan Raab - Wadde Hadde Dudde Da
TTITLE19=Die Bewohner - Big Brother Is O.k.
EXTD=
EXTT0=
EXTT1=
EXTT2=
EXTT3=
EXTT4=
EXTT5=
EXTT6=
EXTT7=
EXTT8=
EXTT9=
EXTT10=
EXTT11=
EXTT12=
EXTT13=
EXTT14=
EXTT15=
EXTT16=
EXTT17=
EXTT18=
EXTT19=
PLAYORDER=
